<svg width="516" height="211" viewBox="0 0 516 211" fill="none" xmlns="http://www.w3.org/2000/svg">
<path d="M153.857 23.6934L152.48 1.34469H156.611L157.251 14.7283L157.443 18.9547H157.731L159.652 6.21145H163.975L165.896 18.9547H166.184L166.376 14.8564L167.017 1.34469H170.987L169.61 23.6934H163.527L161.894 11.3664H161.574L159.941 23.6934H153.857ZM180.932 24.0776C179.651 24.0776 178.499 23.8855 177.474 23.5013C176.45 23.0957 175.574 22.5194 174.849 21.7723C174.144 21.0252 173.6 20.118 173.216 19.0507C172.831 17.9835 172.639 16.7774 172.639 15.4327C172.639 14.0879 172.831 12.8819 173.216 11.8146C173.6 10.7474 174.144 9.84017 174.849 9.09308C175.574 8.34599 176.45 7.78034 177.474 7.39612C178.499 6.99056 179.651 6.78778 180.932 6.78778C182.213 6.78778 183.365 6.99056 184.39 7.39612C185.415 7.78034 186.279 8.34599 186.983 9.09308C187.709 9.84017 188.264 10.7474 188.648 11.8146C189.033 12.8819 189.225 14.0879 189.225 15.4327C189.225 16.7774 189.033 17.9835 188.648 19.0507C188.264 20.118 187.709 21.0252 186.983 21.7723C186.279 22.5194 185.415 23.0957 184.39 23.5013C183.365 23.8855 182.213 24.0776 180.932 24.0776ZM180.932 20.5556C181.999 20.5556 182.832 20.2247 183.429 19.563C184.027 18.9013 184.326 17.9621 184.326 16.7454V14.1199C184.326 12.9032 184.027 11.964 183.429 11.3023C182.832 10.6406 181.999 10.3098 180.932 10.3098C179.865 10.3098 179.032 10.6406 178.435 11.3023C177.837 11.964 177.538 12.9032 177.538 14.1199V16.7454C177.538 17.9621 177.837 18.9013 178.435 19.563C179.032 20.2247 179.865 20.5556 180.932 20.5556ZM192.894 20.0113H196.704V10.8541H192.894V7.172H201.443V11.8466H201.667C201.817 11.249 202.02 10.6726 202.276 10.1177C202.553 9.54134 202.895 9.03972 203.3 8.61281C203.727 8.16456 204.239 7.81236 204.837 7.55621C205.435 7.30007 206.139 7.172 206.95 7.172H208.519V11.5265H204.997C203.823 11.5265 202.937 11.8787 202.34 12.5831C201.742 13.2661 201.443 14.1093 201.443 15.1125V20.0113H206.886V23.6934H192.894V20.0113ZM211.805 -6.87035e-05H216.543V13.4476H216.767L218.977 10.8541L222.435 7.172H227.878L221.474 13.7037L228.55 23.6934H222.915L218.112 16.3932L216.543 17.9621V23.6934H211.805V-6.87035e-05ZM238.335 24.0776C236.499 24.0776 234.898 23.8001 233.532 23.2451C232.188 22.6901 231.174 21.9324 230.491 20.9718L233.148 18.5064C233.789 19.2108 234.536 19.7658 235.389 20.1714C236.265 20.5556 237.257 20.7477 238.367 20.7477C239.306 20.7477 240.043 20.6089 240.576 20.3315C241.11 20.0326 241.377 19.5844 241.377 18.9867C241.377 18.5171 241.195 18.1969 240.833 18.0261C240.47 17.834 239.968 17.6846 239.328 17.5779L236.67 17.1617C235.923 17.0549 235.229 16.8948 234.589 16.6814C233.949 16.4466 233.394 16.1371 232.924 15.7529C232.454 15.3686 232.081 14.899 231.803 14.3441C231.526 13.7891 231.387 13.1167 231.387 12.3269C231.387 10.5979 232.049 9.2425 233.372 8.26061C234.696 7.27872 236.553 6.78778 238.943 6.78778C240.566 6.78778 241.942 7.01191 243.074 7.46016C244.226 7.88707 245.144 8.50609 245.827 9.31721L243.458 12.0067C242.967 11.4731 242.337 11.0248 241.569 10.662C240.8 10.2991 239.872 10.1177 238.783 10.1177C236.948 10.1177 236.03 10.6726 236.03 11.7826C236.03 12.2736 236.211 12.6151 236.574 12.8072C236.937 12.978 237.439 13.1167 238.079 13.2234L240.704 13.6397C241.452 13.7464 242.145 13.9172 242.786 14.152C243.426 14.3654 243.981 14.6642 244.451 15.0485C244.941 15.4327 245.326 15.9023 245.603 16.4573C245.881 17.0122 246.019 17.6846 246.019 18.4744C246.019 20.2034 245.347 21.5695 244.002 22.5727C242.679 23.576 240.79 24.0776 238.335 24.0776ZM250.201 -6.87035e-05H254.94V10.1817H255.132C255.324 9.7121 255.559 9.27452 255.837 8.86896C256.114 8.46339 256.445 8.1112 256.829 7.81236C257.235 7.49218 257.694 7.2467 258.206 7.07594C258.739 6.88383 259.337 6.78778 259.999 6.78778C260.789 6.78778 261.514 6.92652 262.176 7.20401C262.838 7.46016 263.403 7.85505 263.873 8.38869C264.343 8.92232 264.706 9.57336 264.962 10.3418C265.239 11.1102 265.378 11.9961 265.378 12.9993V23.6934H260.639V13.6397C260.639 11.5051 259.711 10.4378 257.854 10.4378C257.491 10.4378 257.128 10.4912 256.765 10.5979C256.424 10.6833 256.114 10.8327 255.837 11.0462C255.559 11.2383 255.335 11.4838 255.164 11.7826C255.015 12.0814 254.94 12.4336 254.94 12.8392V23.6934H250.201V-6.87035e-05ZM276.924 24.0776C275.643 24.0776 274.491 23.8855 273.466 23.5013C272.441 23.0957 271.566 22.5194 270.841 21.7723C270.136 21.0252 269.592 20.118 269.208 19.0507C268.823 17.9835 268.631 16.7774 268.631 15.4327C268.631 14.0879 268.823 12.8819 269.208 11.8146C269.592 10.7474 270.136 9.84017 270.841 9.09308C271.566 8.34599 272.441 7.78034 273.466 7.39612C274.491 6.99056 275.643 6.78778 276.924 6.78778C278.205 6.78778 279.357 6.99056 280.382 7.39612C281.407 7.78034 282.271 8.34599 282.975 9.09308C283.701 9.84017 284.256 10.7474 284.64 11.8146C285.025 12.8819 285.217 14.0879 285.217 15.4327C285.217 16.7774 285.025 17.9835 284.64 19.0507C284.256 20.118 283.701 21.0252 282.975 21.7723C282.271 22.5194 281.407 23.0957 280.382 23.5013C279.357 23.8855 278.205 24.0776 276.924 24.0776ZM276.924 20.5556C277.991 20.5556 278.824 20.2247 279.421 19.563C280.019 18.9013 280.318 17.9621 280.318 16.7454V14.1199C280.318 12.9032 280.019 11.964 279.421 11.3023C278.824 10.6406 277.991 10.3098 276.924 10.3098C275.857 10.3098 275.024 10.6406 274.427 11.3023C273.829 11.964 273.53 12.9032 273.53 14.1199V16.7454C273.53 17.9621 273.829 18.9013 274.427 19.563C275.024 20.2247 275.857 20.5556 276.924 20.5556ZM288.406 7.172H293.145V10.1817H293.369C293.774 9.19981 294.361 8.38869 295.13 7.74832C295.898 7.10796 296.944 6.78778 298.268 6.78778C299.185 6.78778 300.018 6.95854 300.765 7.30007C301.533 7.6416 302.184 8.16456 302.718 8.86896C303.273 9.57336 303.7 10.4699 303.999 11.5585C304.319 12.6471 304.479 13.9385 304.479 15.4327C304.479 16.9269 304.319 18.2183 303.999 19.3069C303.7 20.3955 303.273 21.292 302.718 21.9964C302.184 22.7008 301.533 23.2238 300.765 23.5653C300.018 23.9068 299.185 24.0776 298.268 24.0776C296.944 24.0776 295.898 23.7681 295.13 23.1491C294.361 22.5087 293.774 21.6869 293.369 20.6837H293.145V30.097H288.406V7.172ZM296.218 20.3955C297.286 20.3955 298.107 20.0753 298.684 19.4349C299.26 18.7732 299.548 17.8661 299.548 16.7134V14.152C299.548 12.9993 299.26 12.1028 298.684 11.4624C298.107 10.8007 297.286 10.4699 296.218 10.4699C295.386 10.4699 294.66 10.6726 294.041 11.0782C293.443 11.4838 293.145 12.1241 293.145 12.9993V17.8661C293.145 18.7412 293.443 19.3816 294.041 19.7871C294.66 20.1927 295.386 20.3955 296.218 20.3955ZM334.519 24.0776C333.238 24.0776 332.086 23.8855 331.061 23.5013C330.037 23.0957 329.161 22.5194 328.436 21.7723C327.731 21.0252 327.187 20.118 326.803 19.0507C326.419 17.9835 326.226 16.7774 326.226 15.4327C326.226 14.0879 326.419 12.8819 326.803 11.8146C327.187 10.7474 327.731 9.84017 328.436 9.09308C329.161 8.34599 330.037 7.78034 331.061 7.39612C332.086 6.99056 333.238 6.78778 334.519 6.78778C335.8 6.78778 336.952 6.99056 337.977 7.39612C339.002 7.78034 339.866 8.34599 340.571 9.09308C341.296 9.84017 341.851 10.7474 342.235 11.8146C342.62 12.8819 342.812 14.0879 342.812 15.4327C342.812 16.7774 342.62 17.9835 342.235 19.0507C341.851 20.118 341.296 21.0252 340.571 21.7723C339.866 22.5194 339.002 23.0957 337.977 23.5013C336.952 23.8855 335.8 24.0776 334.519 24.0776ZM334.519 20.5556C335.586 20.5556 336.419 20.2247 337.017 19.563C337.614 18.9013 337.913 17.9621 337.913 16.7454V14.1199C337.913 12.9032 337.614 11.964 337.017 11.3023C336.419 10.6406 335.586 10.3098 334.519 10.3098C333.452 10.3098 332.619 10.6406 332.022 11.3023C331.424 11.964 331.125 12.9032 331.125 14.1199V16.7454C331.125 17.9621 331.424 18.9013 332.022 19.563C332.619 20.2247 333.452 20.5556 334.519 20.5556ZM346.193 23.6934V7.172H350.932V10.1817H351.124C351.316 9.7121 351.551 9.27452 351.828 8.86896C352.106 8.46339 352.437 8.1112 352.821 7.81236C353.227 7.49218 353.685 7.2467 354.198 7.07594C354.731 6.88383 355.329 6.78778 355.991 6.78778C356.781 6.78778 357.506 6.92652 358.168 7.20401C358.83 7.46016 359.395 7.85505 359.865 8.38869C360.335 8.92232 360.697 9.57336 360.954 10.3418C361.231 11.1102 361.37 11.9961 361.37 12.9993V23.6934H356.631V13.6397C356.631 11.5051 355.703 10.4378 353.846 10.4378C353.483 10.4378 353.12 10.4912 352.757 10.5979C352.415 10.6833 352.106 10.8327 351.828 11.0462C351.551 11.2383 351.327 11.4838 351.156 11.7826C351.007 12.0814 350.932 12.4336 350.932 12.8392V23.6934H346.193ZM26.9613 154.081H19.2889C16.3713 154.081 14.3001 153.379 13.0754 151.974C11.8507 150.569 11.2384 148.678 11.2384 146.301V144.086C7.38418 143.329 4.53857 141.312 2.70152 138.034C0.900503 134.72 -7.77909e-06 130.344 -7.77909e-06 124.905C-7.77909e-06 118.745 1.18867 113.955 3.56601 110.533C5.97938 107.111 9.7075 105.4 14.7504 105.4C19.7932 105.4 23.5033 107.111 25.8807 110.533C28.294 113.955 29.5007 118.745 29.5007 124.905C29.5007 130.344 28.5822 134.72 26.7452 138.034C24.9441 141.312 22.1165 143.329 18.2623 144.086V148.3H26.9613V154.081ZM14.7504 137.872C17.0557 137.872 18.6406 137.026 19.505 135.333C20.4056 133.604 20.8558 131.208 20.8558 128.147V121.609C20.8558 118.583 20.4056 116.224 19.505 114.531C18.6406 112.802 17.0557 111.937 14.7504 111.937C12.445 111.937 10.8421 112.802 9.94163 114.531C9.07714 116.224 8.64489 118.583 8.64489 121.609V128.201C8.64489 131.226 9.07714 133.604 9.94163 135.333C10.8421 137.026 12.445 137.872 14.7504 137.872ZM51.8483 138.683H51.5241C50.9118 140.267 49.9392 141.618 48.6065 142.735C47.3097 143.851 45.5447 144.41 43.3114 144.41C41.9787 144.41 40.754 144.194 39.6374 143.761C38.5207 143.293 37.5662 142.609 36.7737 141.708C35.9813 140.808 35.3509 139.709 34.8827 138.412C34.4504 137.116 34.2343 135.621 34.2343 133.928V115.882H42.2308V132.847C42.2308 136.449 43.7977 138.25 46.9315 138.25C47.5438 138.25 48.1382 138.178 48.7145 138.034C49.3269 137.854 49.8492 137.602 50.2814 137.278C50.7497 136.918 51.1279 136.485 51.416 135.981C51.7042 135.477 51.8483 134.882 51.8483 134.198V115.882H59.8448V143.761H51.8483V138.683ZM89.6486 143.761C87.9917 143.761 86.6589 143.347 85.6504 142.519C84.6418 141.654 84.0474 140.43 83.8673 138.845H83.5972C83.0929 140.682 82.0843 142.068 80.5715 143.005C79.0946 143.942 77.2756 144.41 75.1144 144.41C72.4129 144.41 70.2336 143.689 68.5767 142.249C66.9558 140.772 66.1453 138.719 66.1453 136.089C66.1453 133.171 67.2079 131.01 69.3331 129.605C71.4583 128.201 74.5741 127.498 78.6804 127.498H83.1649V126.093C83.1649 124.436 82.7687 123.194 81.9763 122.365C81.2198 121.501 79.9231 121.069 78.0861 121.069C76.3931 121.069 75.0243 121.393 73.9797 122.041C72.9351 122.689 72.0346 123.536 71.2782 124.581L66.9017 120.69C67.8383 119.105 69.2971 117.809 71.2782 116.8C73.2954 115.756 75.8708 115.233 79.0046 115.233C82.8228 115.233 85.7944 116.116 87.9196 117.881C90.0809 119.61 91.1615 122.239 91.1615 125.769V137.98H94.2412V143.761H89.6486ZM78.1401 139.169C79.5449 139.169 80.7336 138.827 81.7061 138.142C82.6787 137.458 83.1649 136.467 83.1649 135.171V131.821H78.8965C75.6187 131.821 73.9797 132.919 73.9797 135.117V136.197C73.9797 137.17 74.358 137.908 75.1144 138.412C75.8708 138.917 76.8794 139.169 78.1401 139.169ZM99.245 143.761V115.882H107.241V120.96H107.566C107.89 120.168 108.286 119.43 108.754 118.745C109.223 118.061 109.781 117.467 110.429 116.962C111.114 116.422 111.888 116.008 112.753 115.72C113.653 115.395 114.662 115.233 115.778 115.233C117.111 115.233 118.336 115.467 119.452 115.936C120.569 116.368 121.524 117.034 122.316 117.935C123.108 118.835 123.721 119.934 124.153 121.231C124.621 122.527 124.855 124.022 124.855 125.715V143.761H116.859V126.796C116.859 123.194 115.292 121.393 112.158 121.393C111.546 121.393 110.934 121.483 110.321 121.663C109.745 121.807 109.223 122.059 108.754 122.419C108.286 122.744 107.908 123.158 107.62 123.662C107.368 124.166 107.241 124.761 107.241 125.445V143.761H99.245ZM146.501 143.761C143.619 143.761 141.476 143.005 140.071 141.492C138.666 139.979 137.964 138.052 137.964 135.711V122.095H130.4V115.882H135.316C136.505 115.882 137.351 115.647 137.856 115.179C138.36 114.711 138.612 113.846 138.612 112.586V106.048H145.96V115.882H156.821V122.095H145.96V137.548H156.821V143.761H146.501ZM181.437 138.683H181.113C180.501 140.267 179.528 141.618 178.196 142.735C176.899 143.851 175.134 144.41 172.901 144.41C171.568 144.41 170.343 144.194 169.226 143.761C168.11 143.293 167.155 142.609 166.363 141.708C165.57 140.808 164.94 139.709 164.472 138.412C164.04 137.116 163.823 135.621 163.823 133.928V115.882H171.82V132.847C171.82 136.449 173.387 138.25 176.521 138.25C177.133 138.25 177.727 138.178 178.304 138.034C178.916 137.854 179.438 137.602 179.87 137.278C180.339 136.918 180.717 136.485 181.005 135.981C181.293 135.477 181.437 134.882 181.437 134.198V115.882H189.434V143.761H181.437V138.683ZM194.546 143.761V115.882H200.975V119.988H201.354C201.786 118.691 202.398 117.575 203.191 116.638C204.019 115.702 205.172 115.233 206.649 115.233C209.35 115.233 211.007 116.818 211.619 119.988H211.944C212.16 119.34 212.43 118.727 212.754 118.151C213.078 117.575 213.474 117.07 213.943 116.638C214.411 116.206 214.969 115.864 215.618 115.611C216.266 115.359 217.022 115.233 217.887 115.233C221.777 115.233 223.722 118.097 223.722 123.824V143.761H217.293V124.635C217.293 123.338 217.058 122.437 216.59 121.933C216.158 121.393 215.582 121.123 214.861 121.123C214.177 121.123 213.582 121.357 213.078 121.825C212.61 122.257 212.376 122.942 212.376 123.878V143.761H205.892V124.635C205.892 123.338 205.676 122.437 205.244 121.933C204.848 121.393 204.289 121.123 203.569 121.123C202.848 121.123 202.236 121.357 201.732 121.825C201.227 122.257 200.975 122.942 200.975 123.878V143.761H194.546ZM278.683 127.984H269.174V143.761H261.015V106.048H269.174V121.339H278.683V106.048H286.842V143.761H278.683V127.984ZM316.43 143.761C314.773 143.761 313.44 143.347 312.431 142.519C311.423 141.654 310.828 140.43 310.648 138.845H310.378C309.874 140.682 308.865 142.068 307.352 143.005C305.876 143.942 304.056 144.41 301.895 144.41C299.194 144.41 297.015 143.689 295.358 142.249C293.737 140.772 292.926 138.719 292.926 136.089C292.926 133.171 293.989 131.01 296.114 129.605C298.239 128.201 301.355 127.498 305.461 127.498H309.946V126.093C309.946 124.436 309.55 123.194 308.757 122.365C308.001 121.501 306.704 121.069 304.867 121.069C303.174 121.069 301.805 121.393 300.761 122.041C299.716 122.689 298.816 123.536 298.059 124.581L293.683 120.69C294.619 119.105 296.078 117.809 298.059 116.8C300.076 115.756 302.652 115.233 305.785 115.233C309.604 115.233 312.575 116.116 314.701 117.881C316.862 119.61 317.942 122.239 317.942 125.769V137.98H321.022V143.761H316.43ZM304.921 139.169C306.326 139.169 307.514 138.827 308.487 138.142C309.46 137.458 309.946 136.467 309.946 135.171V131.821H305.677C302.4 131.821 300.761 132.919 300.761 135.117V136.197C300.761 137.17 301.139 137.908 301.895 138.412C302.652 138.917 303.66 139.169 304.921 139.169ZM326.512 137.548H332.942V122.095H326.512V115.882H340.938V123.77H341.317C341.569 122.762 341.911 121.789 342.343 120.852C342.811 119.88 343.388 119.033 344.072 118.313C344.792 117.557 345.657 116.962 346.666 116.53C347.674 116.098 348.863 115.882 350.232 115.882H352.879V123.23H346.936C344.955 123.23 343.46 123.824 342.451 125.013C341.443 126.165 340.938 127.588 340.938 129.281V137.548H350.124V143.761H326.512V137.548ZM376.145 138.683H375.767C375.047 140.375 374.038 141.762 372.741 142.843C371.481 143.887 369.734 144.41 367.5 144.41C365.951 144.41 364.529 144.122 363.232 143.545C361.971 142.969 360.873 142.086 359.936 140.898C359.035 139.709 358.315 138.196 357.775 136.359C357.27 134.522 357.018 132.343 357.018 129.822C357.018 127.3 357.27 125.121 357.775 123.284C358.315 121.447 359.035 119.934 359.936 118.745C360.873 117.557 361.971 116.674 363.232 116.098C364.529 115.521 365.951 115.233 367.5 115.233C368.617 115.233 369.607 115.377 370.472 115.665C371.336 115.954 372.093 116.35 372.741 116.854C373.426 117.358 374.002 117.971 374.47 118.691C374.975 119.376 375.407 120.132 375.767 120.96H376.145V103.779H384.142V143.761H376.145V138.683ZM370.958 138.196C372.363 138.196 373.57 137.854 374.578 137.17C375.623 136.485 376.145 135.405 376.145 133.928V125.715C376.145 124.238 375.623 123.158 374.578 122.473C373.57 121.789 372.363 121.447 370.958 121.447C369.157 121.447 367.77 122.005 366.798 123.122C365.825 124.202 365.339 125.715 365.339 127.66V131.983C365.339 133.928 365.825 135.459 366.798 136.575C367.77 137.656 369.157 138.196 370.958 138.196ZM387.687 115.882H394.332L396.332 138.466H396.872L400.168 115.882H407.192L410.434 138.466H410.974L413.027 115.882H419.349L416.053 143.761H406.543L403.788 124.527H403.247L400.492 143.761H390.982L387.687 115.882ZM446.019 143.761C444.362 143.761 443.029 143.347 442.02 142.519C441.012 141.654 440.417 140.43 440.237 138.845H439.967C439.463 140.682 438.454 142.068 436.941 143.005C435.465 143.942 433.646 144.41 431.484 144.41C428.783 144.41 426.604 143.689 424.947 142.249C423.326 140.772 422.515 138.719 422.515 136.089C422.515 133.171 423.578 131.01 425.703 129.605C427.828 128.201 430.944 127.498 435.05 127.498H439.535V126.093C439.535 124.436 439.139 123.194 438.346 122.365C437.59 121.501 436.293 121.069 434.456 121.069C432.763 121.069 431.394 121.393 430.35 122.041C429.305 122.689 428.405 123.536 427.648 124.581L423.272 120.69C424.208 119.105 425.667 117.809 427.648 116.8C429.665 115.756 432.241 115.233 435.375 115.233C439.193 115.233 442.164 116.116 444.29 117.881C446.451 119.61 447.531 122.239 447.531 125.769V137.98H450.611V143.761H446.019ZM434.51 139.169C435.915 139.169 437.104 138.827 438.076 138.142C439.049 137.458 439.535 136.467 439.535 135.171V131.821H435.266C431.989 131.821 430.35 132.919 430.35 135.117V136.197C430.35 137.17 430.728 137.908 431.484 138.412C432.241 138.917 433.249 139.169 434.51 139.169ZM456.101 137.548H462.531V122.095H456.101V115.882H470.527V123.77H470.906C471.158 122.762 471.5 121.789 471.932 120.852C472.4 119.88 472.977 119.033 473.661 118.313C474.382 117.557 475.246 116.962 476.255 116.53C477.263 116.098 478.452 115.882 479.821 115.882H482.468V123.23H476.525C474.544 123.23 473.049 123.824 472.04 125.013C471.032 126.165 470.527 127.588 470.527 129.281V137.548H479.713V143.761H456.101V137.548ZM501.466 144.41C496.783 144.41 493.235 143.113 490.822 140.52C488.408 137.926 487.202 134.396 487.202 129.93C487.202 127.66 487.508 125.625 488.12 123.824C488.769 121.987 489.669 120.438 490.822 119.177C492.01 117.881 493.433 116.908 495.09 116.26C496.783 115.575 498.674 115.233 500.763 115.233C502.853 115.233 504.726 115.575 506.383 116.26C508.04 116.908 509.444 117.845 510.597 119.069C511.75 120.294 512.632 121.789 513.245 123.554C513.893 125.283 514.217 127.228 514.217 129.389V131.767H495.144V132.253C495.144 134.054 495.703 135.513 496.819 136.629C497.936 137.71 499.575 138.25 501.736 138.25C503.393 138.25 504.816 137.944 506.004 137.332C507.193 136.683 508.22 135.837 509.084 134.792L513.407 139.493C512.326 140.826 510.813 141.978 508.868 142.951C506.923 143.924 504.456 144.41 501.466 144.41ZM500.817 120.96C499.088 120.96 497.702 121.501 496.657 122.581C495.649 123.626 495.144 125.049 495.144 126.85V127.282H506.383V126.85C506.383 125.013 505.878 123.572 504.87 122.527C503.897 121.483 502.546 120.96 500.817 120.96Z" fill="#ACACAC"/>
<path d="M14.156 84.3758C10.9862 84.3758 8.23066 83.8535 5.88933 82.8089C3.548 81.7643 1.65693 80.3415 0.216115 78.5405L4.91678 73.3535C6.28556 74.8664 7.7804 75.983 9.40132 76.7034C11.0583 77.4238 12.7332 77.784 14.4262 77.784C16.3713 77.784 17.8481 77.3518 18.8567 76.4873C19.8653 75.6228 20.3695 74.3801 20.3695 72.7592C20.3695 71.4264 19.9733 70.4178 19.1809 69.7335C18.4244 69.0491 17.1277 68.5628 15.2907 68.2746L11.3464 67.6263C7.9605 67.0499 5.51112 65.8072 3.99826 63.8981C2.4854 61.953 1.72897 59.5937 1.72897 56.8201C1.72897 53.1821 2.91765 50.3725 5.29499 48.3914C7.67234 46.3742 11.0042 45.3656 15.2907 45.3656C18.2083 45.3656 20.7478 45.8159 22.909 46.7164C25.0702 47.6169 26.8172 48.8416 28.15 50.3905L23.5573 55.5234C22.5488 54.4068 21.3601 53.5423 19.9913 52.9299C18.6225 52.2816 17.0737 51.9574 15.3447 51.9574C11.7066 51.9574 9.8876 53.4522 9.8876 56.4419C9.8876 57.7387 10.2838 58.7112 11.0763 59.3596C11.9047 60.0079 13.2375 60.4942 15.0745 60.8184L19.0188 61.5208C22.0805 62.0611 24.4398 63.2138 26.0968 64.9788C27.7537 66.7438 28.5822 69.1211 28.5822 72.1108C28.5822 73.8758 28.276 75.5147 27.6637 77.0276C27.0513 78.5044 26.1328 79.8012 24.9081 80.9178C23.6834 81.9984 22.1706 82.8449 20.3695 83.4572C18.6045 84.0696 16.5334 84.3758 14.156 84.3758ZM51.8483 78.6485H51.5241C50.9118 80.2334 49.9392 81.5842 48.6065 82.7008C47.3097 83.8174 45.5447 84.3758 43.3114 84.3758C41.9787 84.3758 40.754 84.1596 39.6374 83.7274C38.5207 83.2591 37.5662 82.5747 36.7737 81.6742C35.9813 80.7737 35.3509 79.6751 34.8827 78.3784C34.4504 77.0816 34.2343 75.5868 34.2343 73.8938V55.8476H42.2308V72.8132C42.2308 76.4152 43.7977 78.2163 46.9315 78.2163C47.5438 78.2163 48.1382 78.1442 48.7145 78.0001C49.3269 77.82 49.8492 77.5679 50.2814 77.2437C50.7497 76.8835 51.1279 76.4513 51.416 75.947C51.7042 75.4427 51.8483 74.8484 51.8483 74.164V55.8476H59.8448V83.7274H51.8483V78.6485ZM66.5235 55.8476H74.52V60.9265H74.8983C75.5826 59.2695 76.5732 57.9007 77.8699 56.8201C79.1667 55.7395 80.9317 55.1992 83.1649 55.1992C84.7138 55.1992 86.1186 55.4874 87.3793 56.0637C88.6761 56.64 89.7747 57.5225 90.6752 58.7112C91.6117 59.8999 92.3321 61.4127 92.8364 63.2498C93.3767 65.0868 93.6469 67.2661 93.6469 69.7875C93.6469 72.3089 93.3767 74.4882 92.8364 76.3252C92.3321 78.1622 91.6117 79.6751 90.6752 80.8638C89.7747 82.0524 88.6761 82.9349 87.3793 83.5113C86.1186 84.0876 84.7138 84.3758 83.1649 84.3758C80.9317 84.3758 79.1667 83.8535 77.8699 82.8089C76.5732 81.7283 75.5826 80.3415 74.8983 78.6485H74.52V94.5335H66.5235V55.8476ZM79.707 78.1622C81.508 78.1622 82.8948 77.6219 83.8673 76.5413C84.8399 75.4247 85.3262 73.8938 85.3262 71.9487V67.6263C85.3262 65.6812 84.8399 64.1683 83.8673 63.0877C82.8948 61.9711 81.508 61.4127 79.707 61.4127C78.3022 61.4127 77.0775 61.7549 76.0329 62.4393C75.0243 63.1237 74.52 64.2043 74.52 65.6812V73.8938C74.52 75.3707 75.0243 76.4513 76.0329 77.1357C77.0775 77.82 78.3022 78.1622 79.707 78.1622ZM112.699 84.3758C108.016 84.3758 104.468 83.079 102.055 80.4856C99.6412 77.8921 98.4345 74.3621 98.4345 69.8955C98.4345 67.6263 98.7407 65.5911 99.353 63.7901C100.001 61.953 100.902 60.4042 102.055 59.1435C103.243 57.8467 104.666 56.8742 106.323 56.2258C108.016 55.5414 109.907 55.1992 111.996 55.1992C114.085 55.1992 115.958 55.5414 117.615 56.2258C119.272 56.8742 120.677 57.8107 121.83 59.0354C122.982 60.2601 123.865 61.7549 124.477 63.5199C125.126 65.2489 125.45 67.194 125.45 69.3552V71.7326H106.377V72.2189C106.377 74.0199 106.935 75.4787 108.052 76.5953C109.169 77.676 110.808 78.2163 112.969 78.2163C114.626 78.2163 116.048 77.9101 117.237 77.2977C118.426 76.6494 119.452 75.8029 120.317 74.7583L124.639 79.459C123.559 80.7917 122.046 81.9444 120.101 82.9169C118.156 83.8895 115.688 84.3758 112.699 84.3758ZM112.05 60.9265C110.321 60.9265 108.934 61.4668 107.89 62.5474C106.881 63.592 106.377 65.0148 106.377 66.8158V67.248H117.615V66.8158C117.615 64.9788 117.111 63.5379 116.103 62.4934C115.13 61.4488 113.779 60.9265 112.05 60.9265ZM132.129 77.5139H138.558V62.0611H132.129V55.8476H146.555V63.7361H146.933C147.185 62.7275 147.527 61.7549 147.959 60.8184C148.428 59.8459 149.004 58.9994 149.688 58.279C150.409 57.5225 151.273 56.9282 152.282 56.496C153.291 56.0637 154.479 55.8476 155.848 55.8476H158.495V63.1958H152.552C150.571 63.1958 149.076 63.7901 148.068 64.9788C147.059 66.1314 146.555 67.5542 146.555 69.2472V77.5139H155.74V83.7274H132.129V77.5139ZM209.998 84.3758C204.956 84.3758 201.209 82.6828 198.76 79.2969C196.347 75.8749 195.14 71.0662 195.14 64.8707C195.14 58.6752 196.347 53.8845 198.76 50.4986C201.209 47.0766 204.956 45.3656 209.998 45.3656C211.944 45.3656 213.655 45.6358 215.131 46.1761C216.644 46.6804 217.941 47.4008 219.022 48.3373C220.102 49.2739 220.985 50.4085 221.669 51.7413C222.389 53.074 222.948 54.5689 223.344 56.2258L215.78 58.0628C215.564 57.1623 215.311 56.3339 215.023 55.5774C214.735 54.821 214.357 54.1726 213.889 53.6323C213.456 53.092 212.898 52.6778 212.214 52.3896C211.565 52.0654 210.773 51.9033 209.836 51.9033C207.639 51.9033 206.072 52.7678 205.136 54.4968C204.235 56.1898 203.785 58.5491 203.785 61.5748V68.1666C203.785 71.1923 204.235 73.5696 205.136 75.2986C206.072 76.9916 207.639 77.8381 209.836 77.8381C211.709 77.8381 213.06 77.2617 213.889 76.1091C214.753 74.9564 215.384 73.4796 215.78 71.6786L223.344 73.5156C222.948 75.1725 222.389 76.6674 221.669 78.0001C220.985 79.3329 220.102 80.4856 219.022 81.4581C217.941 82.3946 216.644 83.115 215.131 83.6193C213.655 84.1236 211.944 84.3758 209.998 84.3758ZM241.531 84.3758C239.37 84.3758 237.425 84.0516 235.696 83.4032C233.967 82.7188 232.49 81.7463 231.265 80.4856C230.077 79.2248 229.158 77.694 228.51 75.8929C227.861 74.0919 227.537 72.0568 227.537 69.7875C227.537 67.5182 227.861 65.483 228.51 63.682C229.158 61.881 230.077 60.3501 231.265 59.0894C232.49 57.8287 233.967 56.8742 235.696 56.2258C237.425 55.5414 239.37 55.1992 241.531 55.1992C243.692 55.1992 245.638 55.5414 247.367 56.2258C249.096 56.8742 250.554 57.8287 251.743 59.0894C252.968 60.3501 253.904 61.881 254.553 63.682C255.201 65.483 255.525 67.5182 255.525 69.7875C255.525 72.0568 255.201 74.0919 254.553 75.8929C253.904 77.694 252.968 79.2248 251.743 80.4856C250.554 81.7463 249.096 82.7188 247.367 83.4032C245.638 84.0516 243.692 84.3758 241.531 84.3758ZM241.531 78.4324C243.332 78.4324 244.737 77.8741 245.746 76.7574C246.754 75.6408 247.258 74.0559 247.258 72.0027V67.5722C247.258 65.5191 246.754 63.9342 245.746 62.8175C244.737 61.7009 243.332 61.1426 241.531 61.1426C239.73 61.1426 238.325 61.7009 237.317 62.8175C236.308 63.9342 235.804 65.5191 235.804 67.5722V72.0027C235.804 74.0559 236.308 75.6408 237.317 76.7574C238.325 77.8741 239.73 78.4324 241.531 78.4324ZM261.231 83.7274V55.8476H269.228V60.9265H269.552C269.876 60.134 270.272 59.3956 270.741 58.7112C271.209 58.0268 271.767 57.4325 272.416 56.9282C273.1 56.3879 273.874 55.9737 274.739 55.6855C275.639 55.3613 276.648 55.1992 277.765 55.1992C279.097 55.1992 280.322 55.4334 281.439 55.9016C282.555 56.3339 283.51 57.0002 284.302 57.9008C285.095 58.8013 285.707 59.8999 286.139 61.1966C286.608 62.4934 286.842 63.9882 286.842 65.6812V83.7274H278.845V66.7618C278.845 63.1597 277.278 61.3587 274.145 61.3587C273.532 61.3587 272.92 61.4488 272.308 61.6289C271.731 61.7729 271.209 62.0251 270.741 62.3853C270.272 62.7095 269.894 63.1237 269.606 63.628C269.354 64.1323 269.228 64.7266 269.228 65.411V83.7274H261.231ZM311.351 78.6485H310.972C310.252 80.3415 309.243 81.7283 307.947 82.8089C306.686 83.8535 304.939 84.3758 302.706 84.3758C301.157 84.3758 299.734 84.0876 298.437 83.5113C297.177 82.9349 296.078 82.0524 295.141 80.8638C294.241 79.6751 293.521 78.1622 292.98 76.3252C292.476 74.4882 292.224 72.3089 292.224 69.7875C292.224 67.2661 292.476 65.0868 292.98 63.2498C293.521 61.4127 294.241 59.8999 295.141 58.7112C296.078 57.5225 297.177 56.64 298.437 56.0637C299.734 55.4874 301.157 55.1992 302.706 55.1992C303.822 55.1992 304.813 55.3433 305.677 55.6315C306.542 55.9196 307.298 56.3159 307.947 56.8201C308.631 57.3244 309.207 57.9368 309.676 58.6572C310.18 59.3416 310.612 60.098 310.972 60.9265H311.351V43.7447H319.347V83.7274H311.351V78.6485ZM306.164 78.1622C307.568 78.1622 308.775 77.82 309.784 77.1357C310.828 76.4513 311.351 75.3707 311.351 73.8938V65.6812C311.351 64.2043 310.828 63.1237 309.784 62.4393C308.775 61.7549 307.568 61.4127 306.164 61.4127C304.363 61.4127 302.976 61.9711 302.003 63.0877C301.031 64.1683 300.545 65.6812 300.545 67.6263V71.9487C300.545 73.8938 301.031 75.4247 302.003 76.5413C302.976 77.6219 304.363 78.1622 306.164 78.1622ZM343.424 78.6485H343.1C342.487 80.2334 341.515 81.5842 340.182 82.7008C338.885 83.8174 337.12 84.3758 334.887 84.3758C333.554 84.3758 332.329 84.1596 331.213 83.7274C330.096 83.2591 329.142 82.5747 328.349 81.6742C327.557 80.7737 326.926 79.6751 326.458 78.3784C326.026 77.0816 325.81 75.5868 325.81 73.8938V55.8476H333.806V72.8132C333.806 76.4152 335.373 78.2163 338.507 78.2163C339.119 78.2163 339.714 78.1442 340.29 78.0001C340.902 77.82 341.425 77.5679 341.857 77.2437C342.325 76.8835 342.703 76.4513 342.991 75.947C343.28 75.4427 343.424 74.8484 343.424 74.164V55.8476H351.42V83.7274H343.424V78.6485ZM372.255 84.3758C370.058 84.3758 368.077 84.0516 366.312 83.4032C364.583 82.7188 363.106 81.7463 361.881 80.4856C360.692 79.2248 359.774 77.694 359.126 75.8929C358.477 74.0919 358.153 72.0568 358.153 69.7875C358.153 67.5182 358.477 65.483 359.126 63.682C359.774 61.881 360.692 60.3501 361.881 59.0894C363.106 57.8287 364.583 56.8742 366.312 56.2258C368.077 55.5414 370.04 55.1992 372.201 55.1992C375.263 55.1992 377.712 55.8296 379.549 57.0903C381.422 58.315 382.845 59.9539 383.818 62.0071L377.658 65.357C377.154 64.2764 376.487 63.3759 375.659 62.6554C374.866 61.935 373.714 61.5748 372.201 61.5748C370.364 61.5748 368.941 62.1151 367.933 63.1958C366.96 64.2403 366.474 65.6812 366.474 67.5182V72.0568C366.474 73.8938 366.96 75.3526 367.933 76.4333C368.941 77.4778 370.4 78.0001 372.309 78.0001C373.858 78.0001 375.065 77.6399 375.929 76.9195C376.83 76.1991 377.586 75.2626 378.198 74.1099L384.25 77.5679C383.241 79.6211 381.764 81.278 379.819 82.5387C377.91 83.7634 375.389 84.3758 372.255 84.3758ZM405.679 83.7274C402.797 83.7274 400.654 82.971 399.249 81.4581C397.844 79.9452 397.142 78.0182 397.142 75.6768V62.0611H389.578V55.8476H394.494C395.683 55.8476 396.53 55.6135 397.034 55.1452C397.538 54.6769 397.79 53.8124 397.79 52.5517V46.014H405.139V55.8476H415.999V62.0611H405.139V77.5139H415.999V83.7274H405.679ZM437.644 52.2816C435.843 52.2816 434.582 51.9214 433.862 51.201C433.177 50.4445 432.835 49.544 432.835 48.4994V46.9325C432.835 45.8519 433.177 44.9514 433.862 44.231C434.582 43.5106 435.843 43.1504 437.644 43.1504C439.445 43.1504 440.688 43.5106 441.372 44.231C442.092 44.9514 442.453 45.8519 442.453 46.9325V48.4994C442.453 49.544 442.092 50.4445 441.372 51.201C440.688 51.9214 439.445 52.2816 437.644 52.2816ZM424.785 77.5139H433.646V62.0611H424.785V55.8476H441.642V77.5139H449.855V83.7274H424.785V77.5139ZM455.615 83.7274V55.8476H463.611V60.9265H463.936C464.26 60.134 464.656 59.3956 465.124 58.7112C465.593 58.0268 466.151 57.4325 466.799 56.9282C467.484 56.3879 468.258 55.9737 469.123 55.6855C470.023 55.3613 471.032 55.1992 472.148 55.1992C473.481 55.1992 474.706 55.4334 475.822 55.9016C476.939 56.3339 477.894 57.0002 478.686 57.9008C479.478 58.8013 480.091 59.8999 480.523 61.1966C480.991 62.4934 481.225 63.9882 481.225 65.6812V83.7274H473.229V66.7618C473.229 63.1597 471.662 61.3587 468.528 61.3587C467.916 61.3587 467.304 61.4488 466.691 61.6289C466.115 61.7729 465.593 62.0251 465.124 62.3853C464.656 62.7095 464.278 63.1237 463.99 63.628C463.738 64.1323 463.611 64.7266 463.611 65.411V83.7274H455.615ZM516 86.537C516 89.4907 514.757 91.6699 512.272 93.0747C509.787 94.4795 505.878 95.1819 500.547 95.1819C497.882 95.1819 495.685 95.0198 493.956 94.6956C492.227 94.4074 490.84 93.9752 489.795 93.3989C488.787 92.8225 488.066 92.1382 487.634 91.3457C487.238 90.5533 487.04 89.6888 487.04 88.7522C487.04 87.1673 487.508 85.9607 488.444 85.1322C489.381 84.3397 490.696 83.7274 492.389 83.2951V82.971C491.2 82.6108 490.245 82.1065 489.525 81.4581C488.841 80.7737 488.498 79.8192 488.498 78.5945C488.498 77.2257 488.949 76.2171 489.849 75.5688C490.786 74.9204 492.01 74.4161 493.523 74.0559V73.7317C491.866 72.9393 490.57 71.8226 489.633 70.3818C488.733 68.941 488.282 67.194 488.282 65.1409C488.282 63.5199 488.571 62.0971 489.147 60.8724C489.723 59.6117 490.534 58.5671 491.578 57.7387C492.659 56.9102 493.938 56.2798 495.414 55.8476C496.891 55.4153 498.548 55.1992 500.385 55.1992C502.15 55.1992 503.789 55.3973 505.302 55.7936V54.2807C505.302 53.2001 505.68 52.2996 506.437 51.5792C507.193 50.8588 508.238 50.4986 509.57 50.4986H514.487V56.3339H507.787V56.8201C509.3 57.6126 510.471 58.7112 511.299 60.116C512.164 61.4848 512.596 63.1597 512.596 65.1409C512.596 66.7618 512.308 68.1846 511.732 69.4093C511.155 70.634 510.327 71.6786 509.246 72.543C508.166 73.3715 506.869 74.0019 505.356 74.4341C503.879 74.8664 502.222 75.0825 500.385 75.0825C499.557 75.0825 498.764 75.0465 498.008 74.9744C497.251 74.8664 496.531 74.7223 495.847 74.5422C495.45 74.7583 495.108 75.0285 494.82 75.3526C494.568 75.6768 494.442 76.0911 494.442 76.5953C494.442 77.0276 494.55 77.3698 494.766 77.6219C494.982 77.8741 495.27 78.0722 495.631 78.2163C496.027 78.3243 496.477 78.3964 496.981 78.4324C497.486 78.4684 498.008 78.4864 498.548 78.4864H504.924C506.905 78.4864 508.598 78.6845 510.003 79.0808C511.407 79.477 512.56 80.0353 513.461 80.7557C514.361 81.4761 515.01 82.3226 515.406 83.2951C515.802 84.2677 516 85.3483 516 86.537ZM508.436 87.1313C508.436 86.4109 508.148 85.8346 507.571 85.4023C506.995 85.0061 505.896 84.808 504.275 84.808H494.712C493.992 85.4203 493.631 86.1768 493.631 87.0773C493.631 87.9418 493.992 88.6442 494.712 89.1845C495.468 89.7608 496.729 90.049 498.494 90.049H503.195C505.032 90.049 506.365 89.7968 507.193 89.2925C508.022 88.7883 508.436 88.0679 508.436 87.1313ZM500.385 70.0036C502.006 70.0036 503.177 69.6074 503.897 68.8149C504.654 68.0225 505.032 67.0139 505.032 65.7892V64.4925C505.032 63.2678 504.654 62.2592 503.897 61.4668C503.177 60.6743 502.006 60.2781 500.385 60.2781C498.8 60.2781 497.648 60.6743 496.927 61.4668C496.207 62.2592 495.847 63.2678 495.847 64.4925V65.7892C495.847 67.0139 496.207 68.0225 496.927 68.8149C497.648 69.6074 498.8 70.0036 500.385 70.0036Z" fill="#444A57"/>
<path d="M65.3896 204.18C63.5112 204.18 61.8782 203.87 60.4908 203.251C59.1033 202.632 57.9827 201.789 57.1289 200.722L59.9145 197.648C60.7256 198.544 61.6114 199.206 62.572 199.633C63.5538 200.06 64.5464 200.273 65.5496 200.273C66.7023 200.273 67.5775 200.017 68.1751 199.505C68.7728 198.993 69.0716 198.256 69.0716 197.296C69.0716 196.506 68.8368 195.908 68.3672 195.503C67.919 195.097 67.1506 194.809 66.0619 194.638L63.7246 194.254C61.7181 193.913 60.2667 193.176 59.3701 192.045C58.4736 190.892 58.0254 189.494 58.0254 187.85C58.0254 185.695 58.7298 184.03 60.1386 182.856C61.5474 181.66 63.5218 181.063 66.0619 181.063C67.7909 181.063 69.2958 181.329 70.5765 181.863C71.8572 182.397 72.8925 183.122 73.6823 184.04L70.9607 187.082C70.363 186.42 69.6586 185.908 68.8475 185.545C68.0364 185.161 67.1185 184.969 66.094 184.969C63.9381 184.969 62.8601 185.855 62.8601 187.626C62.8601 188.395 63.0949 188.971 63.5645 189.355C64.0555 189.739 64.8452 190.028 65.9339 190.22L68.2712 190.636C70.0856 190.956 71.4837 191.639 72.4656 192.685C73.4475 193.731 73.9384 195.14 73.9384 196.912C73.9384 197.957 73.757 198.929 73.3941 199.825C73.0312 200.7 72.4869 201.469 71.7612 202.131C71.0354 202.771 70.1389 203.272 69.0716 203.635C68.0257 203.998 66.7984 204.18 65.3896 204.18ZM77.2238 187.274H81.9625V190.284H82.1866C82.5921 189.302 83.1791 188.491 83.9476 187.85C84.716 187.21 85.7619 186.89 87.0854 186.89C88.0032 186.89 88.8357 187.061 89.5828 187.402C90.3512 187.744 91.0022 188.267 91.5359 188.971C92.0909 189.675 92.5178 190.572 92.8166 191.661C93.1368 192.749 93.2969 194.041 93.2969 195.535C93.2969 197.029 93.1368 198.32 92.8166 199.409C92.5178 200.498 92.0909 201.394 91.5359 202.098C91.0022 202.803 90.3512 203.326 89.5828 203.667C88.8357 204.009 88.0032 204.18 87.0854 204.18C85.7619 204.18 84.716 203.87 83.9476 203.251C83.1791 202.611 82.5921 201.789 82.1866 200.786H81.9625V210.199H77.2238V187.274ZM85.0362 200.498C86.1035 200.498 86.9253 200.177 87.5016 199.537C88.0779 198.875 88.3661 197.968 88.3661 196.815V194.254C88.3661 193.101 88.0779 192.205 87.5016 191.565C86.9253 190.903 86.1035 190.572 85.0362 190.572C84.2037 190.572 83.478 190.775 82.859 191.18C82.2613 191.586 81.9625 192.226 81.9625 193.101V197.968C81.9625 198.843 82.2613 199.484 82.859 199.889C83.478 200.295 84.2037 200.498 85.0362 200.498ZM104.139 204.18C102.858 204.18 101.705 203.988 100.681 203.603C99.656 203.198 98.7808 202.621 98.0551 201.874C97.3507 201.127 96.8064 200.22 96.4221 199.153C96.0379 198.086 95.8458 196.88 95.8458 195.535C95.8458 194.19 96.0379 192.984 96.4221 191.917C96.8064 190.849 97.3507 189.942 98.0551 189.195C98.7808 188.448 99.656 187.882 100.681 187.498C101.705 187.093 102.858 186.89 104.139 186.89C105.419 186.89 106.572 187.093 107.596 187.498C108.621 187.882 109.486 188.448 110.19 189.195C110.916 189.942 111.471 190.849 111.855 191.917C112.239 192.984 112.431 194.19 112.431 195.535C112.431 196.88 112.239 198.086 111.855 199.153C111.471 200.22 110.916 201.127 110.19 201.874C109.486 202.621 108.621 203.198 107.596 203.603C106.572 203.988 105.419 204.18 104.139 204.18ZM104.139 200.658C105.206 200.658 106.038 200.327 106.636 199.665C107.234 199.003 107.532 198.064 107.532 196.848V194.222C107.532 193.005 107.234 192.066 106.636 191.404C106.038 190.743 105.206 190.412 104.139 190.412C103.071 190.412 102.239 190.743 101.641 191.404C101.043 192.066 100.745 193.005 100.745 194.222V196.848C100.745 198.064 101.043 199.003 101.641 199.665C102.239 200.327 103.071 200.658 104.139 200.658ZM115.813 203.795V187.274H120.551V190.284H120.743C120.936 189.814 121.17 189.377 121.448 188.971C121.725 188.565 122.056 188.213 122.44 187.914C122.846 187.594 123.305 187.349 123.817 187.178C124.351 186.986 124.948 186.89 125.61 186.89C126.4 186.89 127.126 187.029 127.787 187.306C128.449 187.562 129.015 187.957 129.484 188.491C129.954 189.024 130.317 189.675 130.573 190.444C130.85 191.212 130.989 192.098 130.989 193.101V203.795H126.251V193.742C126.251 191.607 125.322 190.54 123.465 190.54C123.102 190.54 122.739 190.593 122.376 190.7C122.035 190.785 121.725 190.935 121.448 191.148C121.17 191.34 120.946 191.586 120.775 191.885C120.626 192.184 120.551 192.536 120.551 192.941V203.795H115.813ZM142.343 204.18C140.507 204.18 138.907 203.902 137.54 203.347C136.196 202.792 135.182 202.034 134.499 201.074L137.156 198.609C137.797 199.313 138.544 199.868 139.398 200.273C140.273 200.658 141.265 200.85 142.375 200.85C143.314 200.85 144.051 200.711 144.584 200.434C145.118 200.135 145.385 199.686 145.385 199.089C145.385 198.619 145.203 198.299 144.841 198.128C144.478 197.936 143.976 197.787 143.336 197.68L140.678 197.264C139.931 197.157 139.237 196.997 138.597 196.783C137.957 196.549 137.402 196.239 136.932 195.855C136.463 195.471 136.089 195.001 135.811 194.446C135.534 193.891 135.395 193.219 135.395 192.429C135.395 190.7 136.057 189.345 137.38 188.363C138.704 187.381 140.561 186.89 142.952 186.89C144.574 186.89 145.951 187.114 147.082 187.562C148.235 187.989 149.152 188.608 149.835 189.419L147.466 192.109C146.975 191.575 146.345 191.127 145.577 190.764C144.809 190.401 143.88 190.22 142.791 190.22C140.956 190.22 140.038 190.775 140.038 191.885C140.038 192.376 140.219 192.717 140.582 192.909C140.945 193.08 141.447 193.219 142.087 193.326L144.713 193.742C145.46 193.848 146.153 194.019 146.794 194.254C147.434 194.467 147.989 194.766 148.459 195.151C148.95 195.535 149.334 196.004 149.611 196.559C149.889 197.114 150.028 197.787 150.028 198.576C150.028 200.305 149.355 201.672 148.01 202.675C146.687 203.678 144.798 204.18 142.343 204.18ZM161.734 204.18C160.453 204.18 159.3 203.988 158.276 203.603C157.251 203.198 156.376 202.621 155.65 201.874C154.946 201.127 154.402 200.22 154.017 199.153C153.633 198.086 153.441 196.88 153.441 195.535C153.441 194.19 153.633 192.984 154.017 191.917C154.402 190.849 154.946 189.942 155.65 189.195C156.376 188.448 157.251 187.882 158.276 187.498C159.3 187.093 160.453 186.89 161.734 186.89C163.014 186.89 164.167 187.093 165.192 187.498C166.216 187.882 167.081 188.448 167.785 189.195C168.511 189.942 169.066 190.849 169.45 191.917C169.834 192.984 170.026 194.19 170.026 195.535C170.026 196.88 169.834 198.086 169.45 199.153C169.066 200.22 168.511 201.127 167.785 201.874C167.081 202.621 166.216 203.198 165.192 203.603C164.167 203.988 163.014 204.18 161.734 204.18ZM161.734 200.658C162.801 200.658 163.633 200.327 164.231 199.665C164.829 199.003 165.128 198.064 165.128 196.848V194.222C165.128 193.005 164.829 192.066 164.231 191.404C163.633 190.743 162.801 190.412 161.734 190.412C160.666 190.412 159.834 190.743 159.236 191.404C158.639 192.066 158.34 193.005 158.34 194.222V196.848C158.34 198.064 158.639 199.003 159.236 199.665C159.834 200.327 160.666 200.658 161.734 200.658ZM173.696 200.113H177.506V190.956H173.696V187.274H182.245V191.949H182.469C182.618 191.351 182.821 190.775 183.077 190.22C183.355 189.643 183.696 189.142 184.102 188.715C184.529 188.267 185.041 187.914 185.639 187.658C186.236 187.402 186.941 187.274 187.752 187.274H189.321V191.629H185.799C184.625 191.629 183.739 191.981 183.141 192.685C182.544 193.368 182.245 194.211 182.245 195.215V200.113H187.688V203.795H173.696V200.113ZM200.579 204.18C197.804 204.18 195.701 203.411 194.271 201.874C192.841 200.337 192.126 198.246 192.126 195.599C192.126 194.254 192.307 193.048 192.67 191.981C193.054 190.892 193.588 189.974 194.271 189.227C194.976 188.459 195.819 187.882 196.801 187.498C197.804 187.093 198.924 186.89 200.162 186.89C201.4 186.89 202.51 187.093 203.492 187.498C204.474 187.882 205.307 188.437 205.99 189.163C206.673 189.889 207.196 190.775 207.559 191.821C207.943 192.845 208.135 193.998 208.135 195.279V196.687H196.833V196.976C196.833 198.043 197.163 198.907 197.825 199.569C198.487 200.209 199.458 200.53 200.739 200.53C201.721 200.53 202.564 200.348 203.268 199.985C203.973 199.601 204.581 199.099 205.093 198.48L207.655 201.266C207.014 202.056 206.118 202.739 204.965 203.315C203.813 203.892 202.35 204.18 200.579 204.18ZM200.194 190.284C199.17 190.284 198.348 190.604 197.729 191.244C197.131 191.863 196.833 192.706 196.833 193.774V194.03H203.492V193.774C203.492 192.685 203.194 191.831 202.596 191.212C202.02 190.593 201.219 190.284 200.194 190.284ZM222.307 200.786H222.082C221.655 201.789 221.058 202.611 220.289 203.251C219.542 203.87 218.507 204.18 217.184 204.18C216.266 204.18 215.423 204.009 214.654 203.667C213.907 203.326 213.256 202.803 212.701 202.098C212.167 201.394 211.741 200.498 211.42 199.409C211.121 198.32 210.972 197.029 210.972 195.535C210.972 194.041 211.121 192.749 211.42 191.661C211.741 190.572 212.167 189.675 212.701 188.971C213.256 188.267 213.907 187.744 214.654 187.402C215.423 187.061 216.266 186.89 217.184 186.89C217.845 186.89 218.432 186.975 218.945 187.146C219.457 187.317 219.905 187.552 220.289 187.85C220.695 188.149 221.036 188.512 221.314 188.939C221.613 189.345 221.869 189.793 222.082 190.284H222.307V180.102H227.045V203.795H222.307V200.786ZM219.233 200.498C220.065 200.498 220.78 200.295 221.378 199.889C221.997 199.484 222.307 198.843 222.307 197.968V193.101C222.307 192.226 221.997 191.586 221.378 191.18C220.78 190.775 220.065 190.572 219.233 190.572C218.165 190.572 217.344 190.903 216.767 191.565C216.191 192.205 215.903 193.101 215.903 194.254V196.815C215.903 197.968 216.191 198.875 216.767 199.537C217.344 200.177 218.165 200.498 219.233 200.498ZM250.009 180.102H254.748V190.284H254.972C255.378 189.302 255.965 188.491 256.733 187.85C257.501 187.21 258.547 186.89 259.871 186.89C260.789 186.89 261.621 187.061 262.368 187.402C263.137 187.744 263.788 188.267 264.321 188.971C264.876 189.675 265.303 190.572 265.602 191.661C265.922 192.749 266.082 194.041 266.082 195.535C266.082 197.029 265.922 198.32 265.602 199.409C265.303 200.498 264.876 201.394 264.321 202.098C263.788 202.803 263.137 203.326 262.368 203.667C261.621 204.009 260.789 204.18 259.871 204.18C258.547 204.18 257.501 203.87 256.733 203.251C255.965 202.611 255.378 201.789 254.972 200.786H254.748V203.795H250.009V180.102ZM257.822 200.498C258.889 200.498 259.711 200.177 260.287 199.537C260.863 198.875 261.152 197.968 261.152 196.815V194.254C261.152 193.101 260.863 192.205 260.287 191.565C259.711 190.903 258.889 190.572 257.822 190.572C256.989 190.572 256.263 190.775 255.644 191.18C255.047 191.586 254.748 192.226 254.748 193.101V197.968C254.748 198.843 255.047 199.484 255.644 199.889C256.263 200.295 256.989 200.498 257.822 200.498ZM281.086 187.274H285.921L278.141 206.453C277.65 207.67 276.999 208.598 276.188 209.239C275.376 209.879 274.266 210.199 272.858 210.199H269.592V206.517H273.562L274.587 203.699L267.927 187.274H273.018L275.419 194.222L276.924 199.025H277.18L278.621 194.222L281.086 187.274ZM307.444 203.795L306.067 181.447H310.198L310.838 194.83L311.03 199.057H311.318L313.24 186.314H317.562L319.483 199.057H319.771L319.963 194.958L320.604 181.447H324.574L323.197 203.795H317.114L315.481 191.468H315.161L313.528 203.795H307.444ZM334.519 204.18C333.238 204.18 332.086 203.988 331.061 203.603C330.037 203.198 329.161 202.621 328.436 201.874C327.731 201.127 327.187 200.22 326.803 199.153C326.419 198.086 326.226 196.88 326.226 195.535C326.226 194.19 326.419 192.984 326.803 191.917C327.187 190.849 327.731 189.942 328.436 189.195C329.161 188.448 330.037 187.882 331.061 187.498C332.086 187.093 333.238 186.89 334.519 186.89C335.8 186.89 336.952 187.093 337.977 187.498C339.002 187.882 339.866 188.448 340.571 189.195C341.296 189.942 341.851 190.849 342.235 191.917C342.62 192.984 342.812 194.19 342.812 195.535C342.812 196.88 342.62 198.086 342.235 199.153C341.851 200.22 341.296 201.127 340.571 201.874C339.866 202.621 339.002 203.198 337.977 203.603C336.952 203.988 335.8 204.18 334.519 204.18ZM334.519 200.658C335.586 200.658 336.419 200.327 337.017 199.665C337.614 199.003 337.913 198.064 337.913 196.848V194.222C337.913 193.005 337.614 192.066 337.017 191.404C336.419 190.743 335.586 190.412 334.519 190.412C333.452 190.412 332.619 190.743 332.022 191.404C331.424 192.066 331.125 193.005 331.125 194.222V196.848C331.125 198.064 331.424 199.003 332.022 199.665C332.619 200.327 333.452 200.658 334.519 200.658ZM345.073 203.795V187.274H348.883V189.707H349.107C349.363 188.939 349.726 188.277 350.195 187.722C350.686 187.167 351.369 186.89 352.245 186.89C353.846 186.89 354.827 187.829 355.19 189.707H355.382C355.511 189.323 355.671 188.96 355.863 188.619C356.055 188.277 356.29 187.978 356.567 187.722C356.845 187.466 357.175 187.263 357.56 187.114C357.944 186.965 358.392 186.89 358.904 186.89C361.21 186.89 362.362 188.587 362.362 191.981V203.795H358.552V192.461C358.552 191.693 358.413 191.159 358.136 190.86C357.88 190.54 357.538 190.38 357.111 190.38C356.706 190.38 356.354 190.519 356.055 190.796C355.777 191.052 355.639 191.458 355.639 192.013V203.795H351.796V192.461C351.796 191.693 351.668 191.159 351.412 190.86C351.177 190.54 350.847 190.38 350.42 190.38C349.993 190.38 349.63 190.519 349.331 190.796C349.032 191.052 348.883 191.458 348.883 192.013V203.795H345.073ZM373.364 204.18C370.589 204.18 368.487 203.411 367.057 201.874C365.626 200.337 364.911 198.246 364.911 195.599C364.911 194.254 365.093 193.048 365.456 191.981C365.84 190.892 366.373 189.974 367.057 189.227C367.761 188.459 368.604 187.882 369.586 187.498C370.589 187.093 371.71 186.89 372.948 186.89C374.186 186.89 375.296 187.093 376.278 187.498C377.26 187.882 378.092 188.437 378.775 189.163C379.458 189.889 379.981 190.775 380.344 191.821C380.728 192.845 380.92 193.998 380.92 195.279V196.687H369.618V196.976C369.618 198.043 369.949 198.907 370.611 199.569C371.272 200.209 372.243 200.53 373.524 200.53C374.506 200.53 375.349 200.348 376.054 199.985C376.758 199.601 377.366 199.099 377.879 198.48L380.44 201.266C379.8 202.056 378.903 202.739 377.751 203.315C376.598 203.892 375.136 204.18 373.364 204.18ZM372.98 190.284C371.955 190.284 371.134 190.604 370.515 191.244C369.917 191.863 369.618 192.706 369.618 193.774V194.03H376.278V193.774C376.278 192.685 375.979 191.831 375.381 191.212C374.805 190.593 374.004 190.284 372.98 190.284ZM384.59 203.795V187.274H389.329V190.284H389.521C389.713 189.814 389.948 189.377 390.225 188.971C390.503 188.565 390.834 188.213 391.218 187.914C391.623 187.594 392.082 187.349 392.595 187.178C393.128 186.986 393.726 186.89 394.388 186.89C395.177 186.89 395.903 187.029 396.565 187.306C397.226 187.562 397.792 187.957 398.262 188.491C398.731 189.024 399.094 189.675 399.35 190.444C399.628 191.212 399.767 192.098 399.767 193.101V203.795H395.028V193.742C395.028 191.607 394.099 190.54 392.242 190.54C391.879 190.54 391.517 190.593 391.154 190.7C390.812 190.785 390.503 190.935 390.225 191.148C389.948 191.34 389.724 191.586 389.553 191.885C389.403 192.184 389.329 192.536 389.329 192.941V203.795H384.59ZM412.337 185.161C411.27 185.161 410.523 184.947 410.096 184.521C409.69 184.072 409.488 183.539 409.488 182.92V181.991C409.488 181.351 409.69 180.817 410.096 180.39C410.523 179.963 411.27 179.75 412.337 179.75C413.404 179.75 414.141 179.963 414.546 180.39C414.973 180.817 415.187 181.351 415.187 181.991V182.92C415.187 183.539 414.973 184.072 414.546 184.521C414.141 184.947 413.404 185.161 412.337 185.161ZM404.717 200.113H409.968V190.956H404.717V187.274H414.707V200.113H419.573V203.795H404.717V200.113ZM433.297 200.786H433.104C432.742 201.725 432.165 202.525 431.376 203.187C430.607 203.849 429.561 204.18 428.238 204.18C427.448 204.18 426.722 204.052 426.06 203.795C425.399 203.518 424.833 203.112 424.364 202.579C423.894 202.045 423.52 201.394 423.243 200.626C422.987 199.857 422.859 198.971 422.859 197.968V187.274H427.597V197.328C427.597 199.462 428.526 200.53 430.383 200.53C430.746 200.53 431.098 200.487 431.44 200.402C431.802 200.295 432.112 200.145 432.368 199.953C432.646 199.74 432.87 199.484 433.04 199.185C433.211 198.886 433.297 198.534 433.297 198.128V187.274H438.035V203.795H433.297V200.786ZM441.064 203.795V187.274H444.875V189.707H445.099C445.355 188.939 445.718 188.277 446.187 187.722C446.678 187.167 447.361 186.89 448.237 186.89C449.837 186.89 450.819 187.829 451.182 189.707H451.374C451.502 189.323 451.663 188.96 451.855 188.619C452.047 188.277 452.282 187.978 452.559 187.722C452.837 187.466 453.167 187.263 453.552 187.114C453.936 186.965 454.384 186.89 454.896 186.89C457.202 186.89 458.354 188.587 458.354 191.981V203.795H454.544V192.461C454.544 191.693 454.405 191.159 454.128 190.86C453.872 190.54 453.53 190.38 453.103 190.38C452.698 190.38 452.346 190.519 452.047 190.796C451.769 191.052 451.63 191.458 451.63 192.013V203.795H447.788V192.461C447.788 191.693 447.66 191.159 447.404 190.86C447.169 190.54 446.838 190.38 446.412 190.38C445.985 190.38 445.622 190.519 445.323 190.796C445.024 191.052 444.875 191.458 444.875 192.013V203.795H441.064Z" fill="#1E1E1E"/>
</svg>
