<svg width="1440" height="708" viewBox="0 0 1440 708" fill="none" xmlns="http://www.w3.org/2000/svg">
<path d="M45.9646 385.74C17.4387 470.779 2.29749 570.648 0.358765 686.542L0 708H720H1440L1440 699.97C1439.99 679.861 1438.65 641.74 1437.05 616.114C1426.01 438.555 1383.35 305.182 1306.67 208.507C1241.47 126.303 1151.1 69.6515 1031.95 36.3004C962.254 16.7914 880.835 5.00476 790.671 1.37097C783.666 1.08875 774.352 0.715271 769.973 0.540466C745.289 -0.442627 683.684 -0.0288086 652.42 1.33081C545.973 5.9588 454.329 21.9461 375.779 49.5909C311.375 72.257 253.341 104.233 207.151 142.503C133.097 203.858 80.1988 283.684 45.9646 385.74Z" fill="#BE95FF"/>
</svg>
