<svg width="9" height="9" viewBox="0 0 9 9" fill="none" xmlns="http://www.w3.org/2000/svg">
<path d="M0 2.62498H1.87499V8.99994H0V2.62498ZM0.931869 1.87499H0.921369C0.361873 1.87499 0 1.45799 0 0.937119C0 0.404997 0.373123 0 0.942744 0C1.51312 0 1.86449 0.404997 1.87499 0.937119C1.87499 1.45762 1.51312 1.87499 0.931869 1.87499ZM8.99994 8.99994H7.12496V5.58784C7.12496 4.76359 6.66558 4.2011 5.92796 4.2011C5.36509 4.2011 5.06059 4.5806 4.91284 4.94734C4.85884 5.07859 4.87497 5.44159 4.87497 5.62496V8.99994H2.99998V2.62498H4.87497V3.60598C5.14534 3.18748 5.56872 2.62498 6.65171 2.62498C7.99345 2.62498 8.99957 3.46873 8.99957 5.35272L8.99994 8.99994Z" fill="#F6FCFF"/>
</svg>
